<?xml version="1.0" encoding="UTF-8" standalone="no"?>
<!-- Created with Inkscape (http://www.inkscape.org/) -->

<svg
   xmlns:dc="http://purl.org/dc/elements/1.1/"
   xmlns:cc="http://creativecommons.org/ns#"
   xmlns:rdf="http://www.w3.org/1999/02/22-rdf-syntax-ns#"
   xmlns:svg="http://www.w3.org/2000/svg"
   xmlns="http://www.w3.org/2000/svg"
   xmlns:sodipodi="http://sodipodi.sourceforge.net/DTD/sodipodi-0.dtd"
   xmlns:inkscape="http://www.inkscape.org/namespaces/inkscape"
   width="210mm"
   height="297mm"
   viewBox="0 0 744.09448819 1052.3622047"
   id="svg2"
   version="1.1"
   inkscape:version="0.91 r13725"
   sodipodi:docname="butterfly1.svg">
  <defs
     id="defs4" />
  <sodipodi:namedview
     id="base"
     pagecolor="#ffffff"
     bordercolor="#666666"
     borderopacity="1.0"
     inkscape:pageopacity="0.0"
     inkscape:pageshadow="2"
     inkscape:zoom="2.8"
     inkscape:cx="329.66114"
     inkscape:cy="493.50225"
     inkscape:document-units="px"
     inkscape:current-layer="layer1"
     showgrid="false"
     inkscape:window-width="1920"
     inkscape:window-height="983"
     inkscape:window-x="0"
     inkscape:window-y="27"
     inkscape:window-maximized="1" />
  <metadata
     id="metadata7">
    <rdf:RDF>
      <cc:Work
         rdf:about="">
        <dc:format>image/svg+xml</dc:format>
        <dc:type
           rdf:resource="http://purl.org/dc/dcmitype/StillImage" />
        <dc:title></dc:title>
      </cc:Work>
    </rdf:RDF>
  </metadata>
  <g
     inkscape:label="Layer 1"
     inkscape:groupmode="layer"
     id="layer1">
    <path
       id="path4147-8"
       style="fill:#d35f5f;stroke:#000000;stroke-opacity:1"
       d="m 273.55949,441.89217 -9.41476,5.43554 c 3.64339,1.79073 8.971,-0.3113 13.14185,0.75594 4.23751,1.0843 8.38696,2.12215 11.71621,3.77789 8.10716,4.03195 12.61588,10.64352 17.19578,17.22105 7.83555,11.71512 16.2264,33.78103 13.489,35.47283 -6.72354,6.85264 0.86781,10.43025 1.73199,13.66564 -9.42003,-6.87038 -25.15719,-27.71531 -39.11472,-38.72259 -34.94342,-27.07421 -75.51979,-44.18277 -98.09016,-41.35861 -7.41337,0.92762 -14.99856,3.51065 -18.54409,9.47908 -10.07776,16.96456 -1.70691,36.54469 1.5504,59.17613 6.0774,27.90839 28.05495,56.63891 52.85671,61.45853 11.39805,2.03155 15.40907,1.70126 6.69576,-0.55137 -19.5373,-5.05092 -27.72854,-32.01837 -33.74814,-50.15333 -2.68022,-14.54075 -16.44816,-44.5816 -6.30799,-56.50045 6.68742,-7.16946 30.29238,3.75186 45.0217,10.06401 18.24424,8.36359 82.06569,41.30639 83.69358,92.39433 0.83867,17.88198 -7.15157,47.26473 -20.63201,71.34682 -12.04318,21.51449 -23.67947,39.05089 -23.97184,36.34321 -5.06632,-19.6152 -30.51186,-20.35983 -40.65065,-35.50233 -8.23607,-14.23829 -7.52952,-31.1942 2.22052,-53.28889 2.19568,-4.97566 3.83594,-9.20285 3.64503,-9.39376 -0.91052,-0.91053 -14.80346,25.1616 -17.16274,32.20841 -2.31788,6.92316 -2.62438,9.22812 -2.27855,17.13522 0.55067,12.59076 4.35334,20.23328 16.78649,33.73712 9.8994,10.7519 13.24451,15.76782 15.0304,22.53771 1.44437,5.47533 0.68488,9.8029 -2.55948,14.58372 l -2.50689,3.69411 4.28334,-0.71125 c 16.49809,-2.7395 32.75855,-9.64212 43.37313,-18.41204 15.13108,-12.50153 24.91595,-31.10184 28.44077,-54.06377 l 1.3048,-8.5 c 0.52772,5.66868 3.38316,8.86069 8.04934,12.32277 4.66619,-3.46208 7.52163,-6.65409 8.04935,-12.32277 l 1.3048,8.5 c 3.52482,22.96193 13.30969,41.56224 28.44077,54.06377 10.61458,8.76992 26.87504,15.67254 43.37313,18.41204 l 4.28334,0.71125 -2.50689,-3.69411 c -3.24436,-4.78082 -4.00385,-9.10839 -2.55948,-14.58372 1.78589,-6.76989 5.131,-11.78581 15.0304,-22.53771 12.43314,-13.50384 16.23581,-21.14636 16.78648,-33.73712 0.34583,-7.9071 0.0393,-10.21206 -2.27855,-17.13522 -2.35928,-7.04681 -16.25221,-33.11894 -17.16273,-32.20841 -0.19091,0.19091 1.44935,4.4181 3.64503,9.39376 9.75003,22.09469 10.45658,39.0506 2.22052,53.28889 -10.13879,15.1425 -29.58433,15.88712 -34.65065,35.50232 -0.30361,2.81171 -18.83949,-13.60605 -31.36103,-36.3432 -13.03412,-23.66788 -20.05271,-54.07859 -19.24282,-71.34683 1.62789,-51.08792 65.44934,-84.03072 83.69358,-92.39431 14.72931,-6.31215 38.33427,-17.23347 45.02169,-10.06401 10.14017,11.91885 -3.62777,41.9597 -6.30799,56.50044 -6.0196,18.13497 -14.21084,45.10241 -33.74814,50.15333 -8.7133,2.25262 -4.70228,2.58291 6.69576,0.55136 24.80176,-4.81962 46.77931,-33.55013 52.85671,-61.45852 3.25731,-22.63143 11.62816,-42.21156 1.5504,-59.17612 -3.54553,-5.96843 -11.13072,-8.55146 -18.54409,-9.47908 -22.57037,-2.82416 -63.14673,14.2844 -98.09015,41.35861 -13.95753,11.00728 -29.69469,31.85221 -39.11472,38.72259 0.86418,-3.23539 8.45553,-6.813 1.73199,-13.66564 -2.7374,-1.6918 5.65345,-23.75771 13.489,-35.47283 4.5799,-6.57753 9.08862,-13.1891 17.19578,-17.22105 3.32925,-1.65574 7.4787,-2.69359 11.71621,-3.77789 4.17085,-1.06724 9.49846,1.03479 13.14185,-0.75594 l -9.41476,-5.43554 C 366.2678,431.62631 339.19695,449.34651 328.80427,480.20764 318.4116,449.3465 291.34075,431.6263 273.55949,441.89217 Z"
       inkscape:connector-curvature="0"
       sodipodi:nodetypes="scssccccssccsccccsccssssssscssscccssscsssssssccsccccsccssccccsscscs" />
  </g>
</svg>
