<?xml version="1.0" encoding="UTF-8" standalone="no"?>
<!-- Created with Inkscape (http://www.inkscape.org/) -->

<svg
   xmlns:dc="http://purl.org/dc/elements/1.1/"
   xmlns:cc="http://creativecommons.org/ns#"
   xmlns:rdf="http://www.w3.org/1999/02/22-rdf-syntax-ns#"
   xmlns:svg="http://www.w3.org/2000/svg"
   xmlns="http://www.w3.org/2000/svg"
   xmlns:sodipodi="http://sodipodi.sourceforge.net/DTD/sodipodi-0.dtd"
   xmlns:inkscape="http://www.inkscape.org/namespaces/inkscape"
   width="210mm"
   height="297mm"
   viewBox="0 0 744.09448819 1052.3622047"
   id="svg2"
   version="1.1"
   inkscape:version="0.91 r13725"
   sodipodi:docname="ribbon-20.svg">
  <defs
     id="defs4" />
  <sodipodi:namedview
     id="base"
     pagecolor="#ffffff"
     bordercolor="#666666"
     borderopacity="1.0"
     inkscape:pageopacity="0.0"
     inkscape:pageshadow="2"
     inkscape:zoom="1.4"
     inkscape:cx="-38.809971"
     inkscape:cy="885.71429"
     inkscape:document-units="px"
     inkscape:current-layer="layer1"
     showgrid="false"
     inkscape:window-width="1920"
     inkscape:window-height="983"
     inkscape:window-x="0"
     inkscape:window-y="27"
     inkscape:window-maximized="1" />
  <metadata
     id="metadata7">
    <rdf:RDF>
      <cc:Work
         rdf:about="">
        <dc:format>image/svg+xml</dc:format>
        <dc:type
           rdf:resource="http://purl.org/dc/dcmitype/StillImage" />
        <dc:title></dc:title>
      </cc:Work>
    </rdf:RDF>
  </metadata>
  <g
     inkscape:label="Layer 1"
     inkscape:groupmode="layer"
     id="layer1">
    <g
       transform="matrix(4.9405154,0,0,6.7570982,1271.7591,-2190.3013)"
       style="font-style:normal;font-weight:normal;font-size:40px;line-height:125%;font-family:sans-serif;letter-spacing:0px;word-spacing:0px;fill:#000000;fill-opacity:1;stroke:none;stroke-width:1px;stroke-linecap:butt;stroke-linejoin:miter;stroke-opacity:1"
       id="flowRoot4151" />
    <path
       id="path4186"
       style="fill:#1a1a1a;fill-opacity:1;stroke:#ffffff;stroke-width:1.46920669;stroke-miterlimit:4;stroke-dasharray:none;stroke-opacity:1"
       d="M -60.117665,12.889261 -84.206276,0.29768572 -108.23512,13.002952 l 4.53151,-26.800642 -19.50874,-18.926642 26.889236,-3.972132 11.971772,-24.402573 12.086954,24.345729 26.907707,3.845021 -19.41909,19.018621 z m 28.068575,11.914208 0,4.865111 0,10.000505 0,10.000506 0,4.324543 c -7.509583,1.441491 -13.635822,7.117454 -18.378717,17.027887 -4.611131,9.910433 -6.916722,24.956194 -6.916722,45.137419 0,20.18122 2.305591,35.13691 6.916722,44.86713 4.742895,9.73022 10.869134,15.40618 18.378717,17.02789 l 0,14.86561 0,14.59533 c -14.492162,-1.44149 -26.020064,-8.91936 -34.583608,-22.43356 -9.88103,-15.67647 -14.821546,-38.6506 -14.821546,-68.9224 0,-30.271803 4.940516,-53.245937 14.821546,-68.922405 8.563544,-13.874552 20.091446,-21.35243 34.583608,-22.433566 z m 7.904825,0 c 6.192096,0.540568 12.252478,2.522628 18.1810966,5.946247 6.06038203,3.423619 11.3961387,8.919369 16.0072704,16.487319 10.012794,16.036824 15.019166,39.010958 15.019166,68.922405 0,29.91144 -5.006372,52.88557 -15.019166,68.9224 -8.4318299,13.69441 -19.8279192,21.08215 -34.188367,22.16328 l 0,-29.19066 c 6.587337,0 12.384242,-5.22547 17.3906141,-15.67647 5.1381361,-10.63115 7.70720407,-26.03733 7.70720407,-46.21855 0,-20.181225 -2.10796967,-35.046841 -6.32385967,-44.596851 C -9.4544824,62.012579 -15.712436,56.066333 -24.144265,53.72385 Z m -143.367585,178.927961 0,-29.19066 65.61005,0 0,29.19066 z m -7.7072,0 -23.31923,0 0,-30.00152 c 0,-21.08214 5.46752,-36.39825 16.40251,-45.94826 3.68893,-3.24341 7.97068,-6.12646 12.84534,-8.64909 l 26.28354,-13.78448 c 5.79685,-3.0632 10.01279,-6.84717 12.64772,-11.351925 2.76669,-4.684899 4.15003,-10.451001 4.15003,-17.298171 0,-6.847171 -1.77858,-12.523133 -5.33575,-17.027888 -3.55718,-4.684899 -8.62945,-7.027382 -15.21679,-7.027382 -6.58734,0 -12.05486,2.162271 -16.40251,6.486814 -4.21589,4.324543 -6.65325,10.721285 -7.31197,19.190159 l -25.8883,0 c 0.26333,-17.117959 5.07228,-30.542084 14.42631,-40.272305 8.56354,-8.829298 20.09144,-13.243913 34.58361,-13.243913 13.30643,0 24.30733,4.865111 33.00264,14.595333 8.82707,10.090577 13.24058,22.433566 13.24058,37.028898 0,14.595332 -2.70083,26.30761 -8.10244,35.13691 -5.2699,8.64909 -13.50406,15.94675 -24.70258,21.893 l -26.67878,14.05476 c -5.13814,2.70284 -8.89293,5.76604 -11.26438,9.18966 -2.23968,3.2434 -3.35955,7.47787 -3.35955,12.70334 l 0,5.1354 z m -149.78096,250.05932 99.99998,149.99995 137.142829,-204.28566 c 0,0 124.28573,199.99997 130.000029,198.57138 C 47.857127,596.64784 156.42856,459.50503 156.42856,459.50503 L 10.714282,262.36216 c 0,0 71.795126,-77.78102 82.857088,-127.14284 C 101.98032,97.696342 95.890794,54.896409 77.857122,20.933612 57.456647,-17.486573 20.461919,-48.53402 -19.285762,-66.209238 -48.164013,-79.051035 -82.406775,-81.465549 -113.57145,-76.20927 c -35.28886,5.951855 -71.01502,21.25898 -97.14288,45.714269 -29.41183,27.5290266 -52.18681,65.938197 -58.57139,105.714329 -6.06859,37.807182 4.05082,78.736342 21.42854,112.857122 14.82995,29.11823 67.14284,71.42854 67.14284,71.42854 z" />
  </g>
</svg>
